<?xml version="1.0" encoding="UTF-8" standalone="no"?>
<!DOCTYPE svg PUBLIC "-//W3C//DTD SVG 1.1//EN"
 "http://www.w3.org/Graphics/SVG/1.1/DTD/svg11.dtd">
<!-- Generated by graphviz version 2.50.0 (20220117.2223)
 -->
<!-- Title: dag_flowchart Pages: 1 -->
<svg width="1358pt" height="856pt"
 viewBox="0.00 0.00 1357.60 856.20" xmlns="http://www.w3.org/2000/svg" xmlns:xlink="http://www.w3.org/1999/xlink">
<g id="graph0" class="graph" transform="scale(1 1) rotate(0) translate(4 852.2)">
<title>dag_flowchart</title>
<polygon fill="white" stroke="transparent" points="-4,4 -4,-852.2 1353.6,-852.2 1353.6,4 -4,4"/>
<!-- v0 -->
<g id="node1" class="node">
<title>v0</title>
<ellipse fill="black" stroke="black" cx="79.6" cy="-829.6" rx="3.6" ry="3.6"/>
<text text-anchor="middle" x="38" y="-837" font-family="Times,serif" font-size="14.00">Channel.from</text>
</g>
<!-- v13 -->
<g id="node2" class="node">
<title>v13</title>
<ellipse fill="none" stroke="black" cx="119.6" cy="-771.4" rx="3.5" ry="3.5"/>
<text text-anchor="middle" x="92.1" y="-778.7" font-family="Times,serif" font-size="14.00">combine</text>
</g>
<!-- v0&#45;&gt;v13 -->
<g id="edge1" class="edge">
<title>v0&#45;&gt;v13</title>
<path fill="none" stroke="black" d="M78.78,-825.74C77.13,-819.32 74.07,-803.5 80.6,-793 86.34,-783.78 97.69,-778.45 106.67,-775.53"/>
<polygon fill="black" stroke="black" points="107.67,-778.89 116.45,-772.96 105.89,-772.12 107.67,-778.89"/>
<text text-anchor="middle" x="109.6" y="-796.8" font-family="Times,serif" font-size="14.00">batch_size</text>
</g>
<!-- v14 -->
<g id="node5" class="node">
<title>v14</title>
<ellipse fill="none" stroke="black" cx="135.6" cy="-713.2" rx="3.5" ry="3.5"/>
<text text-anchor="middle" x="108.1" y="-720.5" font-family="Times,serif" font-size="14.00">combine</text>
</g>
<!-- v13&#45;&gt;v14 -->
<g id="edge14" class="edge">
<title>v13&#45;&gt;v14</title>
<path fill="none" stroke="black" d="M120.37,-767.69C122.46,-760.37 128.3,-739.86 132.11,-726.47"/>
<polygon fill="black" stroke="black" points="135.5,-727.33 134.87,-716.75 128.77,-725.41 135.5,-727.33"/>
</g>
<!-- v1 -->
<g id="node3" class="node">
<title>v1</title>
<ellipse fill="black" stroke="black" cx="160.6" cy="-829.6" rx="3.6" ry="3.6"/>
<text text-anchor="middle" x="119" y="-837" font-family="Times,serif" font-size="14.00">Channel.from</text>
</g>
<!-- v1&#45;&gt;v13 -->
<g id="edge2" class="edge">
<title>v1&#45;&gt;v13</title>
<path fill="none" stroke="black" d="M159.16,-825.9C155.87,-819.79 147.39,-804.57 138.6,-793 135.66,-789.13 132.12,-785.14 128.9,-781.72"/>
<polygon fill="black" stroke="black" points="131.25,-779.12 121.74,-774.45 126.26,-784.03 131.25,-779.12"/>
<text text-anchor="middle" x="184.1" y="-796.8" font-family="Times,serif" font-size="14.00">learning_rate</text>
</g>
<!-- v2 -->
<g id="node4" class="node">
<title>v2</title>
<ellipse fill="black" stroke="black" cx="152.6" cy="-771.4" rx="3.6" ry="3.6"/>
<text text-anchor="middle" x="111" y="-756.6" font-family="Times,serif" font-size="14.00">Channel.from</text>
</g>
<!-- v2&#45;&gt;v14 -->
<g id="edge3" class="edge">
<title>v2&#45;&gt;v14</title>
<path fill="none" stroke="black" d="M151.78,-767.69C149.57,-760.37 143.36,-739.86 139.31,-726.47"/>
<polygon fill="black" stroke="black" points="142.62,-725.31 136.37,-716.75 135.92,-727.34 142.62,-725.31"/>
<text text-anchor="middle" x="168.6" y="-738.6" font-family="Times,serif" font-size="14.00">patience</text>
</g>
<!-- v15 -->
<g id="node7" class="node">
<title>v15</title>
<ellipse fill="none" stroke="black" cx="151.6" cy="-655" rx="3.5" ry="3.5"/>
<text text-anchor="middle" x="124.1" y="-662.3" font-family="Times,serif" font-size="14.00">combine</text>
</g>
<!-- v14&#45;&gt;v15 -->
<g id="edge15" class="edge">
<title>v14&#45;&gt;v15</title>
<path fill="none" stroke="black" d="M136.37,-709.49C138.46,-702.17 144.3,-681.66 148.11,-668.27"/>
<polygon fill="black" stroke="black" points="151.5,-669.13 150.87,-658.55 144.77,-667.21 151.5,-669.13"/>
</g>
<!-- v3 -->
<g id="node6" class="node">
<title>v3</title>
<ellipse fill="black" stroke="black" cx="168.6" cy="-713.2" rx="3.6" ry="3.6"/>
<text text-anchor="middle" x="127" y="-698.4" font-family="Times,serif" font-size="14.00">Channel.from</text>
</g>
<!-- v3&#45;&gt;v15 -->
<g id="edge4" class="edge">
<title>v3&#45;&gt;v15</title>
<path fill="none" stroke="black" d="M167.78,-709.49C165.57,-702.17 159.36,-681.66 155.31,-668.27"/>
<polygon fill="black" stroke="black" points="158.62,-667.11 152.37,-658.55 151.92,-669.14 158.62,-667.11"/>
<text text-anchor="middle" x="213.1" y="-680.4" font-family="Times,serif" font-size="14.00">kernel_size_conv1</text>
</g>
<!-- v16 -->
<g id="node9" class="node">
<title>v16</title>
<ellipse fill="none" stroke="black" cx="167.6" cy="-596.8" rx="3.5" ry="3.5"/>
<text text-anchor="middle" x="140.1" y="-604.1" font-family="Times,serif" font-size="14.00">combine</text>
</g>
<!-- v15&#45;&gt;v16 -->
<g id="edge16" class="edge">
<title>v15&#45;&gt;v16</title>
<path fill="none" stroke="black" d="M152.37,-651.29C154.46,-643.97 160.3,-623.46 164.11,-610.07"/>
<polygon fill="black" stroke="black" points="167.5,-610.93 166.87,-600.35 160.77,-609.01 167.5,-610.93"/>
</g>
<!-- v4 -->
<g id="node8" class="node">
<title>v4</title>
<ellipse fill="black" stroke="black" cx="184.6" cy="-655" rx="3.6" ry="3.6"/>
<text text-anchor="middle" x="143" y="-640.2" font-family="Times,serif" font-size="14.00">Channel.from</text>
</g>
<!-- v4&#45;&gt;v16 -->
<g id="edge5" class="edge">
<title>v4&#45;&gt;v16</title>
<path fill="none" stroke="black" d="M183.78,-651.29C181.57,-643.97 175.36,-623.46 171.31,-610.07"/>
<polygon fill="black" stroke="black" points="174.62,-608.91 168.37,-600.35 167.92,-610.94 174.62,-608.91"/>
<text text-anchor="middle" x="233.6" y="-622.2" font-family="Times,serif" font-size="14.00">out_channels_conv1</text>
</g>
<!-- v17 -->
<g id="node11" class="node">
<title>v17</title>
<ellipse fill="none" stroke="black" cx="183.6" cy="-538.6" rx="3.5" ry="3.5"/>
<text text-anchor="middle" x="156.1" y="-545.9" font-family="Times,serif" font-size="14.00">combine</text>
</g>
<!-- v16&#45;&gt;v17 -->
<g id="edge17" class="edge">
<title>v16&#45;&gt;v17</title>
<path fill="none" stroke="black" d="M168.37,-593.09C170.46,-585.77 176.3,-565.26 180.11,-551.87"/>
<polygon fill="black" stroke="black" points="183.5,-552.73 182.87,-542.15 176.77,-550.81 183.5,-552.73"/>
</g>
<!-- v5 -->
<g id="node10" class="node">
<title>v5</title>
<ellipse fill="black" stroke="black" cx="200.6" cy="-596.8" rx="3.6" ry="3.6"/>
<text text-anchor="middle" x="159" y="-582" font-family="Times,serif" font-size="14.00">Channel.from</text>
</g>
<!-- v5&#45;&gt;v17 -->
<g id="edge6" class="edge">
<title>v5&#45;&gt;v17</title>
<path fill="none" stroke="black" d="M199.78,-593.09C197.57,-585.77 191.36,-565.26 187.31,-551.87"/>
<polygon fill="black" stroke="black" points="190.62,-550.71 184.37,-542.15 183.92,-552.74 190.62,-550.71"/>
<text text-anchor="middle" x="245.1" y="-564" font-family="Times,serif" font-size="14.00">kernel_size_conv2</text>
</g>
<!-- v18 -->
<g id="node13" class="node">
<title>v18</title>
<ellipse fill="none" stroke="black" cx="199.6" cy="-480.4" rx="3.5" ry="3.5"/>
<text text-anchor="middle" x="172.1" y="-487.7" font-family="Times,serif" font-size="14.00">combine</text>
</g>
<!-- v17&#45;&gt;v18 -->
<g id="edge18" class="edge">
<title>v17&#45;&gt;v18</title>
<path fill="none" stroke="black" d="M184.37,-534.89C186.46,-527.57 192.3,-507.06 196.11,-493.67"/>
<polygon fill="black" stroke="black" points="199.5,-494.53 198.87,-483.95 192.77,-492.61 199.5,-494.53"/>
</g>
<!-- v6 -->
<g id="node12" class="node">
<title>v6</title>
<ellipse fill="black" stroke="black" cx="216.6" cy="-538.6" rx="3.6" ry="3.6"/>
<text text-anchor="middle" x="175" y="-523.8" font-family="Times,serif" font-size="14.00">Channel.from</text>
</g>
<!-- v6&#45;&gt;v18 -->
<g id="edge7" class="edge">
<title>v6&#45;&gt;v18</title>
<path fill="none" stroke="black" d="M215.78,-534.89C213.57,-527.57 207.36,-507.06 203.31,-493.67"/>
<polygon fill="black" stroke="black" points="206.62,-492.51 200.37,-483.95 199.92,-494.54 206.62,-492.51"/>
<text text-anchor="middle" x="265.6" y="-505.8" font-family="Times,serif" font-size="14.00">out_channels_conv2</text>
</g>
<!-- v19 -->
<g id="node15" class="node">
<title>v19</title>
<ellipse fill="none" stroke="black" cx="215.6" cy="-422.2" rx="3.5" ry="3.5"/>
<text text-anchor="middle" x="188.1" y="-429.5" font-family="Times,serif" font-size="14.00">combine</text>
</g>
<!-- v18&#45;&gt;v19 -->
<g id="edge19" class="edge">
<title>v18&#45;&gt;v19</title>
<path fill="none" stroke="black" d="M200.37,-476.69C202.46,-469.37 208.3,-448.86 212.11,-435.47"/>
<polygon fill="black" stroke="black" points="215.5,-436.33 214.87,-425.75 208.77,-434.41 215.5,-436.33"/>
</g>
<!-- v7 -->
<g id="node14" class="node">
<title>v7</title>
<ellipse fill="black" stroke="black" cx="232.6" cy="-480.4" rx="3.6" ry="3.6"/>
<text text-anchor="middle" x="191" y="-465.6" font-family="Times,serif" font-size="14.00">Channel.from</text>
</g>
<!-- v7&#45;&gt;v19 -->
<g id="edge8" class="edge">
<title>v7&#45;&gt;v19</title>
<path fill="none" stroke="black" d="M231.78,-476.69C229.57,-469.37 223.36,-448.86 219.31,-435.47"/>
<polygon fill="black" stroke="black" points="222.62,-434.31 216.37,-425.75 215.92,-436.34 222.62,-434.31"/>
<text text-anchor="middle" x="284.6" y="-447.6" font-family="Times,serif" font-size="14.00">kernel_size_maxpool</text>
</g>
<!-- v20 -->
<g id="node17" class="node">
<title>v20</title>
<ellipse fill="none" stroke="black" cx="231.6" cy="-364" rx="3.5" ry="3.5"/>
<text text-anchor="middle" x="204.1" y="-371.3" font-family="Times,serif" font-size="14.00">combine</text>
</g>
<!-- v19&#45;&gt;v20 -->
<g id="edge20" class="edge">
<title>v19&#45;&gt;v20</title>
<path fill="none" stroke="black" d="M216.37,-418.49C218.46,-411.17 224.3,-390.66 228.11,-377.27"/>
<polygon fill="black" stroke="black" points="231.5,-378.13 230.87,-367.55 224.77,-376.21 231.5,-378.13"/>
</g>
<!-- v8 -->
<g id="node16" class="node">
<title>v8</title>
<ellipse fill="black" stroke="black" cx="248.6" cy="-422.2" rx="3.6" ry="3.6"/>
<text text-anchor="middle" x="207" y="-407.4" font-family="Times,serif" font-size="14.00">Channel.from</text>
</g>
<!-- v8&#45;&gt;v20 -->
<g id="edge9" class="edge">
<title>v8&#45;&gt;v20</title>
<path fill="none" stroke="black" d="M247.78,-418.49C245.57,-411.17 239.36,-390.66 235.31,-377.27"/>
<polygon fill="black" stroke="black" points="238.62,-376.11 232.37,-367.55 231.92,-378.14 238.62,-376.11"/>
<text text-anchor="middle" x="275.1" y="-389.4" font-family="Times,serif" font-size="14.00">fc1_neurons</text>
</g>
<!-- v21 -->
<g id="node19" class="node">
<title>v21</title>
<ellipse fill="none" stroke="black" cx="247.6" cy="-305.8" rx="3.5" ry="3.5"/>
<text text-anchor="middle" x="220.1" y="-313.1" font-family="Times,serif" font-size="14.00">combine</text>
</g>
<!-- v20&#45;&gt;v21 -->
<g id="edge21" class="edge">
<title>v20&#45;&gt;v21</title>
<path fill="none" stroke="black" d="M232.37,-360.29C234.46,-352.97 240.3,-332.46 244.11,-319.07"/>
<polygon fill="black" stroke="black" points="247.5,-319.93 246.87,-309.35 240.77,-318.01 247.5,-319.93"/>
</g>
<!-- v9 -->
<g id="node18" class="node">
<title>v9</title>
<ellipse fill="black" stroke="black" cx="264.6" cy="-364" rx="3.6" ry="3.6"/>
<text text-anchor="middle" x="223" y="-349.2" font-family="Times,serif" font-size="14.00">Channel.from</text>
</g>
<!-- v9&#45;&gt;v21 -->
<g id="edge10" class="edge">
<title>v9&#45;&gt;v21</title>
<path fill="none" stroke="black" d="M263.78,-360.29C261.57,-352.97 255.36,-332.46 251.31,-319.07"/>
<polygon fill="black" stroke="black" points="254.62,-317.91 248.37,-309.35 247.92,-319.94 254.62,-317.91"/>
<text text-anchor="middle" x="291.1" y="-331.2" font-family="Times,serif" font-size="14.00">dropout_fc1</text>
</g>
<!-- v22 -->
<g id="node21" class="node">
<title>v22</title>
<ellipse fill="none" stroke="black" cx="263.6" cy="-247.6" rx="3.5" ry="3.5"/>
<text text-anchor="middle" x="236.1" y="-254.9" font-family="Times,serif" font-size="14.00">combine</text>
</g>
<!-- v21&#45;&gt;v22 -->
<g id="edge22" class="edge">
<title>v21&#45;&gt;v22</title>
<path fill="none" stroke="black" d="M248.37,-302.09C250.46,-294.77 256.3,-274.26 260.11,-260.87"/>
<polygon fill="black" stroke="black" points="263.5,-261.73 262.87,-251.15 256.77,-259.81 263.5,-261.73"/>
</g>
<!-- v10 -->
<g id="node20" class="node">
<title>v10</title>
<ellipse fill="black" stroke="black" cx="280.6" cy="-305.8" rx="3.6" ry="3.6"/>
<text text-anchor="middle" x="239" y="-291" font-family="Times,serif" font-size="14.00">Channel.from</text>
</g>
<!-- v10&#45;&gt;v22 -->
<g id="edge11" class="edge">
<title>v10&#45;&gt;v22</title>
<path fill="none" stroke="black" d="M279.78,-302.09C277.57,-294.77 271.36,-274.26 267.31,-260.87"/>
<polygon fill="black" stroke="black" points="270.62,-259.71 264.37,-251.15 263.92,-261.74 270.62,-259.71"/>
<text text-anchor="middle" x="307.1" y="-273" font-family="Times,serif" font-size="14.00">fc2_neurons</text>
</g>
<!-- v23 -->
<g id="node23" class="node">
<title>v23</title>
<ellipse fill="none" stroke="black" cx="279.6" cy="-189.4" rx="3.5" ry="3.5"/>
<text text-anchor="middle" x="252.1" y="-196.7" font-family="Times,serif" font-size="14.00">combine</text>
</g>
<!-- v22&#45;&gt;v23 -->
<g id="edge23" class="edge">
<title>v22&#45;&gt;v23</title>
<path fill="none" stroke="black" d="M264.37,-243.89C266.46,-236.57 272.3,-216.06 276.11,-202.67"/>
<polygon fill="black" stroke="black" points="279.5,-203.53 278.87,-192.95 272.77,-201.61 279.5,-203.53"/>
</g>
<!-- v11 -->
<g id="node22" class="node">
<title>v11</title>
<ellipse fill="black" stroke="black" cx="296.6" cy="-247.6" rx="3.6" ry="3.6"/>
<text text-anchor="middle" x="255" y="-232.8" font-family="Times,serif" font-size="14.00">Channel.from</text>
</g>
<!-- v11&#45;&gt;v23 -->
<g id="edge12" class="edge">
<title>v11&#45;&gt;v23</title>
<path fill="none" stroke="black" d="M295.78,-243.89C293.57,-236.57 287.36,-216.06 283.31,-202.67"/>
<polygon fill="black" stroke="black" points="286.62,-201.51 280.37,-192.95 279.92,-203.54 286.62,-201.51"/>
<text text-anchor="middle" x="323.1" y="-214.8" font-family="Times,serif" font-size="14.00">dropout_fc2</text>
</g>
<!-- v24 -->
<g id="node25" class="node">
<title>v24</title>
<ellipse fill="none" stroke="black" cx="295.6" cy="-131.2" rx="3.5" ry="3.5"/>
<text text-anchor="middle" x="268.1" y="-138.5" font-family="Times,serif" font-size="14.00">combine</text>
</g>
<!-- v23&#45;&gt;v24 -->
<g id="edge24" class="edge">
<title>v23&#45;&gt;v24</title>
<path fill="none" stroke="black" d="M280.37,-185.69C282.46,-178.37 288.3,-157.86 292.11,-144.47"/>
<polygon fill="black" stroke="black" points="295.5,-145.33 294.87,-134.75 288.77,-143.41 295.5,-145.33"/>
</g>
<!-- v12 -->
<g id="node24" class="node">
<title>v12</title>
<ellipse fill="black" stroke="black" cx="312.6" cy="-189.4" rx="3.6" ry="3.6"/>
<text text-anchor="middle" x="271" y="-174.6" font-family="Times,serif" font-size="14.00">Channel.from</text>
</g>
<!-- v12&#45;&gt;v24 -->
<g id="edge13" class="edge">
<title>v12&#45;&gt;v24</title>
<path fill="none" stroke="black" d="M311.78,-185.69C309.57,-178.37 303.36,-157.86 299.31,-144.47"/>
<polygon fill="black" stroke="black" points="302.62,-143.31 296.37,-134.75 295.92,-145.34 302.62,-143.31"/>
<text text-anchor="middle" x="320.6" y="-156.6" font-family="Times,serif" font-size="14.00">kmer</text>
</g>
<!-- v36 -->
<g id="node26" class="node">
<title>v36</title>
<ellipse fill="none" stroke="black" cx="838.6" cy="-58.6" rx="51.19" ry="18"/>
<text text-anchor="middle" x="838.6" y="-54.9" font-family="Times,serif" font-size="14.00">nn_training</text>
</g>
<!-- v24&#45;&gt;v36 -->
<g id="edge25" class="edge">
<title>v24&#45;&gt;v36</title>
<path fill="none" stroke="black" d="M296.91,-127.71C300.65,-120.94 312.06,-102.17 327.6,-94.6 367.11,-75.35 650.33,-64.96 777.3,-61.22"/>
<polygon fill="black" stroke="black" points="777.73,-64.71 787.63,-60.92 777.53,-57.72 777.73,-64.71"/>
<text text-anchor="middle" x="404.1" y="-98.4" font-family="Times,serif" font-size="14.00">combined_hyperparameters</text>
</g>
<!-- v39 -->
<g id="node38" class="node">
<title>v39</title>
<ellipse fill="black" stroke="black" cx="813.6" cy="-1.8" rx="1.8" ry="1.8"/>
</g>
<!-- v36&#45;&gt;v39 -->
<g id="edge37" class="edge">
<title>v36&#45;&gt;v39</title>
<path fill="none" stroke="black" d="M830.83,-40.56C826.71,-31.54 821.8,-20.77 818.27,-13.04"/>
<polygon fill="black" stroke="black" points="821.37,-11.41 814.04,-3.76 815.01,-14.31 821.37,-11.41"/>
</g>
<!-- v38 -->
<g id="node39" class="node">
<title>v38</title>
<ellipse fill="black" stroke="black" cx="838.6" cy="-1.8" rx="1.8" ry="1.8"/>
</g>
<!-- v36&#45;&gt;v38 -->
<g id="edge38" class="edge">
<title>v36&#45;&gt;v38</title>
<path fill="none" stroke="black" d="M838.6,-40.56C838.6,-31.87 838.6,-21.56 838.6,-13.9"/>
<polygon fill="black" stroke="black" points="842.1,-13.76 838.6,-3.76 835.1,-13.76 842.1,-13.76"/>
</g>
<!-- v37 -->
<g id="node40" class="node">
<title>v37</title>
<ellipse fill="black" stroke="black" cx="863.6" cy="-1.8" rx="1.8" ry="1.8"/>
</g>
<!-- v36&#45;&gt;v37 -->
<g id="edge39" class="edge">
<title>v36&#45;&gt;v37</title>
<path fill="none" stroke="black" d="M846.37,-40.56C850.49,-31.54 855.4,-20.77 858.93,-13.04"/>
<polygon fill="black" stroke="black" points="862.19,-14.31 863.16,-3.76 855.83,-11.41 862.19,-14.31"/>
</g>
<!-- v25 -->
<g id="node27" class="node">
<title>v25</title>
<ellipse fill="black" stroke="black" cx="471.6" cy="-131.2" rx="3.6" ry="3.6"/>
</g>
<!-- v25&#45;&gt;v36 -->
<g id="edge26" class="edge">
<title>v25&#45;&gt;v36</title>
<path fill="none" stroke="black" d="M472.87,-127.74C476.46,-121.05 487.47,-102.46 502.6,-94.6 549,-70.5 693.78,-62.99 777.37,-60.65"/>
<polygon fill="black" stroke="black" points="777.6,-64.15 787.5,-60.39 777.41,-57.15 777.6,-64.15"/>
<text text-anchor="middle" x="527.6" y="-98.4" font-family="Times,serif" font-size="14.00">work_dir</text>
</g>
<!-- v26 -->
<g id="node28" class="node">
<title>v26</title>
<ellipse fill="black" stroke="black" cx="544.6" cy="-131.2" rx="3.6" ry="3.6"/>
</g>
<!-- v26&#45;&gt;v36 -->
<g id="edge27" class="edge">
<title>v26&#45;&gt;v36</title>
<path fill="none" stroke="black" d="M545.75,-127.77C549.03,-121.13 559.12,-102.68 573.6,-94.6 607.56,-75.64 710.69,-66.5 777.83,-62.45"/>
<polygon fill="black" stroke="black" points="778.09,-65.94 787.87,-61.87 777.68,-58.96 778.09,-65.94"/>
<text text-anchor="middle" x="596.1" y="-98.4" font-family="Times,serif" font-size="14.00">files_dir</text>
</g>
<!-- v27 -->
<g id="node29" class="node">
<title>v27</title>
<ellipse fill="black" stroke="black" cx="612.6" cy="-131.2" rx="3.6" ry="3.6"/>
</g>
<!-- v27&#45;&gt;v36 -->
<g id="edge28" class="edge">
<title>v27&#45;&gt;v36</title>
<path fill="none" stroke="black" d="M613.59,-127.41C616.17,-120.56 623.84,-102.86 636.6,-94.6 659.59,-79.71 727.94,-70.08 778.8,-64.76"/>
<polygon fill="black" stroke="black" points="779.45,-68.21 789.05,-63.72 778.75,-61.25 779.45,-68.21"/>
<text text-anchor="middle" x="668.6" y="-98.4" font-family="Times,serif" font-size="14.00">training_set</text>
</g>
<!-- v28 -->
<g id="node30" class="node">
<title>v28</title>
<ellipse fill="black" stroke="black" cx="699.6" cy="-131.2" rx="3.6" ry="3.6"/>
</g>
<!-- v28&#45;&gt;v36 -->
<g id="edge29" class="edge">
<title>v28&#45;&gt;v36</title>
<path fill="none" stroke="black" d="M700.02,-127.51C701.19,-120.88 705.14,-103.64 715.6,-94.6 733.3,-79.3 757.26,-70.67 779.34,-65.8"/>
<polygon fill="black" stroke="black" points="780.19,-69.2 789.32,-63.82 778.83,-62.34 780.19,-69.2"/>
<text text-anchor="middle" x="753.6" y="-98.4" font-family="Times,serif" font-size="14.00">validation_set</text>
</g>
<!-- v29 -->
<g id="node31" class="node">
<title>v29</title>
<ellipse fill="black" stroke="black" cx="798.6" cy="-131.2" rx="3.6" ry="3.6"/>
</g>
<!-- v29&#45;&gt;v36 -->
<g id="edge30" class="edge">
<title>v29&#45;&gt;v36</title>
<path fill="none" stroke="black" d="M797.98,-127.45C796.72,-121.24 794.4,-105.82 799.6,-94.6 801.69,-90.09 804.66,-85.91 808.05,-82.13"/>
<polygon fill="black" stroke="black" points="810.7,-84.42 815.42,-74.94 805.82,-79.41 810.7,-84.42"/>
<text text-anchor="middle" x="828.6" y="-98.4" font-family="Times,serif" font-size="14.00">testing_set</text>
</g>
<!-- v30 -->
<g id="node32" class="node">
<title>v30</title>
<ellipse fill="black" stroke="black" cx="879.6" cy="-131.2" rx="3.6" ry="3.6"/>
</g>
<!-- v30&#45;&gt;v36 -->
<g id="edge31" class="edge">
<title>v30&#45;&gt;v36</title>
<path fill="none" stroke="black" d="M878.24,-127.85C874.37,-121.19 862.98,-101.59 853.4,-85.09"/>
<polygon fill="black" stroke="black" points="856.37,-83.24 848.33,-76.35 850.32,-86.75 856.37,-83.24"/>
<text text-anchor="middle" x="887.1" y="-98.4" font-family="Times,serif" font-size="14.00">all_sets</text>
</g>
<!-- v31 -->
<g id="node33" class="node">
<title>v31</title>
<ellipse fill="black" stroke="black" cx="943.6" cy="-131.2" rx="3.6" ry="3.6"/>
</g>
<!-- v31&#45;&gt;v36 -->
<g id="edge32" class="edge">
<title>v31&#45;&gt;v36</title>
<path fill="none" stroke="black" d="M941.86,-127.65C937.43,-121.34 925.17,-104.76 911.6,-94.6 902.47,-87.76 891.79,-81.74 881.47,-76.71"/>
<polygon fill="black" stroke="black" points="882.68,-73.41 872.14,-72.37 879.73,-79.76 882.68,-73.41"/>
<text text-anchor="middle" x="945.6" y="-98.4" font-family="Times,serif" font-size="14.00">epochs</text>
</g>
<!-- v32 -->
<g id="node34" class="node">
<title>v32</title>
<ellipse fill="black" stroke="black" cx="1004.6" cy="-131.2" rx="3.6" ry="3.6"/>
</g>
<!-- v32&#45;&gt;v36 -->
<g id="edge33" class="edge">
<title>v32&#45;&gt;v36</title>
<path fill="none" stroke="black" d="M1002.95,-127.88C998.31,-121.52 984.45,-103.71 968.6,-94.6 946.26,-81.76 919.05,-73.49 895.31,-68.24"/>
<polygon fill="black" stroke="black" points="895.87,-64.78 885.37,-66.16 894.44,-71.63 895.87,-64.78"/>
<text text-anchor="middle" x="1023.1" y="-98.4" font-family="Times,serif" font-size="14.00">training_perc</text>
</g>
<!-- v33 -->
<g id="node35" class="node">
<title>v33</title>
<ellipse fill="black" stroke="black" cx="1100.6" cy="-131.2" rx="3.6" ry="3.6"/>
</g>
<!-- v33&#45;&gt;v36 -->
<g id="edge34" class="edge">
<title>v33&#45;&gt;v36</title>
<path fill="none" stroke="black" d="M1098.94,-127.78C1094.26,-121.19 1080.21,-102.84 1063.6,-94.6 1012.29,-69.16 947,-61.31 899.98,-59.28"/>
<polygon fill="black" stroke="black" points="900.06,-55.78 889.94,-58.92 899.81,-62.78 900.06,-55.78"/>
<text text-anchor="middle" x="1125.1" y="-98.4" font-family="Times,serif" font-size="14.00">validation_perc</text>
</g>
<!-- v34 -->
<g id="node36" class="node">
<title>v34</title>
<ellipse fill="black" stroke="black" cx="1208.6" cy="-131.2" rx="3.6" ry="3.6"/>
</g>
<!-- v34&#45;&gt;v36 -->
<g id="edge35" class="edge">
<title>v34&#45;&gt;v36</title>
<path fill="none" stroke="black" d="M1206.96,-127.74C1202.33,-121.03 1188.41,-102.42 1171.6,-94.6 1124.73,-72.8 982.29,-64.4 899.67,-61.3"/>
<polygon fill="black" stroke="black" points="899.78,-57.8 889.66,-60.94 899.53,-64.8 899.78,-57.8"/>
<text text-anchor="middle" x="1216.1" y="-98.4" font-family="Times,serif" font-size="14.00">test_perc</text>
</g>
<!-- v35 -->
<g id="node37" class="node">
<title>v35</title>
<ellipse fill="black" stroke="black" cx="1280.6" cy="-131.2" rx="3.6" ry="3.6"/>
</g>
<!-- v35&#45;&gt;v36 -->
<g id="edge36" class="edge">
<title>v35&#45;&gt;v36</title>
<path fill="none" stroke="black" d="M1279.03,-127.72C1274.59,-120.98 1261.2,-102.27 1244.6,-94.6 1184.98,-67.05 998.26,-61.05 900.18,-59.83"/>
<polygon fill="black" stroke="black" points="900.15,-56.33 890.11,-59.72 900.07,-63.33 900.15,-56.33"/>
<text text-anchor="middle" x="1306.6" y="-98.4" font-family="Times,serif" font-size="14.00">subsetting_seed</text>
</g>
</g>
</svg>
